<svg xmlns="http://www.w3.org/2000/svg" width="31.42" height="33.83" viewBox="0 0 322.8 289" style="enable-background:new 0 0 322.8 289;" xml:space="preserve">
<style type="text/css">
	.st0{fill:#BFBEED;}
	.st1{fill:#7367F0;}
</style>
<path class="st0" d="M278.2,193.5c-12.6-0.8-24.2,3.3-33.1,10.5l-31.6-23.4c1.7-4.9,2.6-10.2,2.6-15.7c0-22.1-15-40.7-35.4-46.2V98
	c20.8-5.6,36.1-28.9,35.4-51.7C215.3,21.4,195.1,1,170.1,0c-27.3-1-49.7,20.7-49.7,47.8c0,23.1,16.4,42.4,38.2,46.8V118
	c-21.8,4.5-38.2,23.7-38.2,46.8c0,5.9,1.1,11.5,3,16.7l-30,22.2c-9-7.1-18.4,18.9-30.9,19.8c-23.3,1.6-44.3-9.9-46.4,13.3
	c-2.6,29.8,22.1,54.5,51.8,52c22.9-2,41.4-20.4,43.4-43.3c0.8-8.8-0.8-17.2-4.3-24.5l28.6-21.2c8.5,7.9,26.3-10.2,38.8-10.2
	c13,0,18.4,17.9,27,9.5l30,22.2c-3.3,7.3-4.9,15.6-4.1,24.4c2.1,22.8,20.6,41.2,43.4,43.1c29.8,2.5,54.4-22.2,51.8-52
	C320.6,213.5,301.5,195,278.2,193.5z"/>
<path class="st1" d="M262.2,193.4c-11.3,0-21.8,4-30,10.6l-31.6-23.4c1.7-4.9,2.6-10.2,2.6-15.7c0-22.1-15-40.7-35.4-46.2V94
	c20.4-5.5,35.4-24.1,35.4-46.2c0-26.4-21.4-47.8-47.8-47.8s-47.8,21.4-47.8,47.8c0,23.1,16.4,42.4,38.2,46.8V118
	c-21.8,4.5-38.2,23.7-38.2,46.8c0,5.9,1.1,11.5,3,16.7l-30,22.2c-8.2-6.5-18.5-10.3-29.7-10.3c-26.4,0-47.8,21.4-47.8,47.8
	C3.2,267.6,24.6,289,51,289c26.4,0,47.8-21.4,47.8-47.8c0-7.2-1.6-14-4.5-20.2l28.6-21.2c8.5,7.9,20,12.8,32.5,12.8
	c13,0,24.7-5.2,33.3-13.5l30,22.2c-2.8,6-4.3,12.8-4.3,19.9c0,26.4,21.4,47.8,47.8,47.8s47.8-21.4,47.8-47.8
	C310,214.8,288.6,193.4,262.2,193.4z"/>
</svg>
